<mxfile host="app.diagrams.net" modified="2020-11-08T10:04:22.242Z" agent="5.0 (Macintosh; Intel Mac OS X 10_15_7) AppleWebKit/537.36 (KHTML, like Gecko) Chrome/86.0.4240.183 Safari/537.36" etag="wJXqqk_2bJklg6d0nRL6" version="13.9.2" type="github">
  <diagram id="C5RBs43oDa-KdzZeNtuy" name="Page-1">
    <mxGraphModel dx="994" dy="1023" grid="1" gridSize="10" guides="1" tooltips="1" connect="1" arrows="1" fold="1" page="1" pageScale="1" pageWidth="827" pageHeight="1169" math="0" shadow="0">
      <root>
        <mxCell id="WIyWlLk6GJQsqaUBKTNV-0" />
        <mxCell id="WIyWlLk6GJQsqaUBKTNV-1" parent="WIyWlLk6GJQsqaUBKTNV-0" />
        <mxCell id="402DV-XQyOO6TvEaiUYU-20" style="edgeStyle=orthogonalEdgeStyle;rounded=0;orthogonalLoop=1;jettySize=auto;html=1;exitX=1;exitY=0.5;exitDx=0;exitDy=0;entryX=0;entryY=0.5;entryDx=0;entryDy=0;" edge="1" parent="WIyWlLk6GJQsqaUBKTNV-1" source="402DV-XQyOO6TvEaiUYU-1" target="402DV-XQyOO6TvEaiUYU-3">
          <mxGeometry relative="1" as="geometry" />
        </mxCell>
        <mxCell id="402DV-XQyOO6TvEaiUYU-1" value="Triangulation: Reconstruct 3D points from&amp;nbsp; ResultCam1 &amp;amp; ResultCam2" style="rounded=1;whiteSpace=wrap;html=1;" vertex="1" parent="WIyWlLk6GJQsqaUBKTNV-1">
          <mxGeometry x="750" y="300" width="155" height="90" as="geometry" />
        </mxCell>
        <mxCell id="402DV-XQyOO6TvEaiUYU-31" style="edgeStyle=orthogonalEdgeStyle;rounded=0;orthogonalLoop=1;jettySize=auto;html=1;exitX=1;exitY=0.25;exitDx=0;exitDy=0;entryX=0;entryY=0.5;entryDx=0;entryDy=0;" edge="1" parent="WIyWlLk6GJQsqaUBKTNV-1" source="402DV-XQyOO6TvEaiUYU-2" target="402DV-XQyOO6TvEaiUYU-1">
          <mxGeometry relative="1" as="geometry" />
        </mxCell>
        <mxCell id="402DV-XQyOO6TvEaiUYU-32" style="edgeStyle=orthogonalEdgeStyle;rounded=0;orthogonalLoop=1;jettySize=auto;html=1;exitX=1;exitY=0.75;exitDx=0;exitDy=0;entryX=0;entryY=0.75;entryDx=0;entryDy=0;" edge="1" parent="WIyWlLk6GJQsqaUBKTNV-1" source="402DV-XQyOO6TvEaiUYU-2" target="402DV-XQyOO6TvEaiUYU-5">
          <mxGeometry relative="1" as="geometry">
            <Array as="points">
              <mxPoint x="645" y="560" />
              <mxPoint x="685" y="560" />
              <mxPoint x="685" y="545" />
            </Array>
          </mxGeometry>
        </mxCell>
        <mxCell id="402DV-XQyOO6TvEaiUYU-2" value="ResultCam2: Project 3D Joint Data into 2D Pixel Locations from vue4" style="rounded=1;whiteSpace=wrap;html=1;" vertex="1" parent="WIyWlLk6GJQsqaUBKTNV-1">
          <mxGeometry x="500" y="490" width="145" height="80" as="geometry" />
        </mxCell>
        <mxCell id="402DV-XQyOO6TvEaiUYU-3" value="Measure Error between Triangulation &amp;amp; 3D Points" style="rounded=1;whiteSpace=wrap;html=1;" vertex="1" parent="WIyWlLk6GJQsqaUBKTNV-1">
          <mxGeometry x="960" y="405" width="150" height="85" as="geometry" />
        </mxCell>
        <mxCell id="402DV-XQyOO6TvEaiUYU-17" style="edgeStyle=orthogonalEdgeStyle;rounded=0;orthogonalLoop=1;jettySize=auto;html=1;exitX=1;exitY=0.75;exitDx=0;exitDy=0;entryX=0;entryY=0.5;entryDx=0;entryDy=0;" edge="1" parent="WIyWlLk6GJQsqaUBKTNV-1" source="402DV-XQyOO6TvEaiUYU-4" target="402DV-XQyOO6TvEaiUYU-5">
          <mxGeometry relative="1" as="geometry" />
        </mxCell>
        <mxCell id="402DV-XQyOO6TvEaiUYU-29" style="edgeStyle=orthogonalEdgeStyle;rounded=0;orthogonalLoop=1;jettySize=auto;html=1;exitX=1;exitY=0.5;exitDx=0;exitDy=0;entryX=0;entryY=0.25;entryDx=0;entryDy=0;" edge="1" parent="WIyWlLk6GJQsqaUBKTNV-1" source="402DV-XQyOO6TvEaiUYU-4" target="402DV-XQyOO6TvEaiUYU-1">
          <mxGeometry relative="1" as="geometry">
            <Array as="points">
              <mxPoint x="690" y="370" />
              <mxPoint x="690" y="323" />
            </Array>
          </mxGeometry>
        </mxCell>
        <mxCell id="402DV-XQyOO6TvEaiUYU-4" value="ResultCam1: Project 3D Joint Data into 2D Pixel Locations from vue2" style="rounded=1;whiteSpace=wrap;html=1;" vertex="1" parent="WIyWlLk6GJQsqaUBKTNV-1">
          <mxGeometry x="500" y="330" width="150" height="80" as="geometry" />
        </mxCell>
        <mxCell id="402DV-XQyOO6TvEaiUYU-5" value="Calculate Epipolar Lines from World Coordinates, ResultCam1 &amp;amp; ResultCam2" style="rounded=1;whiteSpace=wrap;html=1;" vertex="1" parent="WIyWlLk6GJQsqaUBKTNV-1">
          <mxGeometry x="725" y="470" width="165" height="100" as="geometry" />
        </mxCell>
        <mxCell id="402DV-XQyOO6TvEaiUYU-27" style="edgeStyle=orthogonalEdgeStyle;rounded=0;orthogonalLoop=1;jettySize=auto;html=1;exitX=1;exitY=0.25;exitDx=0;exitDy=0;entryX=0;entryY=0.5;entryDx=0;entryDy=0;" edge="1" parent="WIyWlLk6GJQsqaUBKTNV-1" source="402DV-XQyOO6TvEaiUYU-6" target="402DV-XQyOO6TvEaiUYU-4">
          <mxGeometry relative="1" as="geometry" />
        </mxCell>
        <mxCell id="402DV-XQyOO6TvEaiUYU-28" style="edgeStyle=orthogonalEdgeStyle;rounded=0;orthogonalLoop=1;jettySize=auto;html=1;exitX=1;exitY=0.75;exitDx=0;exitDy=0;entryX=0;entryY=0.5;entryDx=0;entryDy=0;" edge="1" parent="WIyWlLk6GJQsqaUBKTNV-1" source="402DV-XQyOO6TvEaiUYU-6" target="402DV-XQyOO6TvEaiUYU-2">
          <mxGeometry relative="1" as="geometry" />
        </mxCell>
        <mxCell id="402DV-XQyOO6TvEaiUYU-6" value="Reading Camera Parameters from vue2 &amp;amp; vue4" style="rounded=1;whiteSpace=wrap;html=1;" vertex="1" parent="WIyWlLk6GJQsqaUBKTNV-1">
          <mxGeometry x="270" y="410" width="154" height="80" as="geometry" />
        </mxCell>
        <mxCell id="402DV-XQyOO6TvEaiUYU-26" style="edgeStyle=orthogonalEdgeStyle;rounded=0;orthogonalLoop=1;jettySize=auto;html=1;exitX=1;exitY=0.5;exitDx=0;exitDy=0;entryX=0;entryY=0.5;entryDx=0;entryDy=0;" edge="1" parent="WIyWlLk6GJQsqaUBKTNV-1" source="402DV-XQyOO6TvEaiUYU-7" target="402DV-XQyOO6TvEaiUYU-6">
          <mxGeometry relative="1" as="geometry" />
        </mxCell>
        <mxCell id="402DV-XQyOO6TvEaiUYU-7" value="Read 3D Joint Data from mocapJoints.mat" style="rounded=1;whiteSpace=wrap;html=1;" vertex="1" parent="WIyWlLk6GJQsqaUBKTNV-1">
          <mxGeometry x="70" y="410" width="150" height="80" as="geometry" />
        </mxCell>
      </root>
    </mxGraphModel>
  </diagram>
</mxfile>
